<svg width="22" height="23" viewBox="0 0 22 23" fill="none" xmlns="http://www.w3.org/2000/svg">
            <path
              d="M2 1.5C2 0.947715 1.55228 0.5 1 0.5C0.447715 0.5 0 0.947715 0 1.5V15.4998C0 15.4999 0 15.4997 0 15.4998V18.5C0 20.7091 1.79086 22.5 4 22.5H21C21.5523 22.5 22 22.0523 22 21.5C22 20.9477 21.5523 20.5 21 20.5H4C2.89543 20.5 2 19.6046 2 18.5V15.9142L7 10.9142L10.2929 14.2071C10.6834 14.5976 11.3166 14.5976 11.7071 14.2071L20 5.91421V9.5C20 10.0523 20.4477 10.5 21 10.5C21.5523 10.5 22 10.0523 22 9.5V3.5C22 2.94772 21.5523 2.5 21 2.5H15C14.4477 2.5 14 2.94772 14 3.5C14 4.05228 14.4477 4.5 15 4.5H18.5858L11 12.0858L7.70711 8.79289C7.31658 8.40237 6.68342 8.40237 6.29289 8.79289L2 13.0858V1.5Z"
              fill="#79797A"></path>
          </svg>