<svg width="22" height="23" viewBox="0 0 22 23" fill="none" xmlns="http://www.w3.org/2000/svg">
            <path fill-rule="evenodd" clip-rule="evenodd"
              d="M22 11.6227V19.4665C22 21.1419 20.6569 22.5 19 22.5H16C14.3431 22.5 13 21.1419 13 19.4665V15.6673C13 15.1088 12.5523 14.6561 12 14.6561H10C9.44771 14.6561 9 15.1088 9 15.6673V19.4665C9 21.1419 7.65685 22.5 6 22.5H3C1.34315 22.5 0 21.1419 0 19.4665V11.6227C0 10.8182 0.31607 10.0466 0.87868 9.4777L8.87868 1.38848C10.0503 0.203841 11.9497 0.203839 13.1213 1.38848L21.1213 9.47769C21.6839 10.0466 22 10.8182 22 11.6227ZM20 11.6227V19.4665C20 20.0583 19.5314 20.5 19 20.5H16C15.4686 20.5 15 20.0583 15 19.4665V15.6673C15 14.0252 13.6777 12.6561 12 12.6561H10C8.32229 12.6561 7 14.0252 7 15.6673V19.4665C7 20.0583 6.53143 20.5 6 20.5H3C2.46857 20.5 2 20.0583 2 19.4665V11.6227C2 11.3415 2.11068 11.0762 2.30071 10.884L10.3007 2.79483C10.6895 2.40172 11.3105 2.40172 11.6993 2.79483L19.6993 10.884C19.8893 11.0762 20 11.3415 20 11.6227Z"
              fill="#1d72f2"></path>
          </svg>