<svg width="22" height="23" viewBox="0 0 22 23" fill="none" xmlns="http://www.w3.org/2000/svg">
            <path fill-rule="evenodd" clip-rule="evenodd"
              d="M11 20.5C6.02944 20.5 2 16.4706 2 11.5C2 6.52944 6.02944 2.5 11 2.5C15.9706 2.5 20 6.52944 20 11.5C20 16.4706 15.9706 20.5 11 20.5ZM0 11.5C0 5.42487 4.92487 0.5 11 0.5C17.0751 0.5 22 5.42487 22 11.5C22 17.5751 17.0751 22.5 11 22.5C4.92487 22.5 0 17.5751 0 11.5ZM14.5432 7.95681L12.4429 12.9429L7.45682 15.0432L9.55713 10.0571L14.5432 7.95681ZM13.7668 6.11367L8.78073 8.21398C8.29953 8.41668 7.91669 8.79953 7.71399 9.28072L5.61367 14.2668C4.91748 15.9195 6.58049 17.5825 8.23322 16.8863L13.2193 14.786C13.7005 14.5833 14.0833 14.2005 14.286 13.7193L16.3863 8.73321C17.0825 7.08049 15.4195 5.41748 13.7668 6.11367Z"
              fill="#79797A"></path>
          </svg>