<svg width="25" height="30" viewBox="0 0 22 14" fill="none" xmlns="http://www.w3.org/2000/svg">
              <path fill-rule="evenodd" clip-rule="evenodd"
                d="M0 1C0 0.447715 0.447715 0 1 0H21C21.5523 0 22 0.447715 22 1C22 1.55228 21.5523 2 21 2H1C0.447716 2 0 1.55228 0 1ZM0 7C0 6.44772 0.447715 6 1 6H21C21.5523 6 22 6.44772 22 7C22 7.55228 21.5523 8 21 8H1C0.447716 8 0 7.55228 0 7ZM1 12C0.447715 12 0 12.4477 0 13C0 13.5523 0.447716 14 1 14H21C21.5523 14 22 13.5523 22 13C22 12.4477 21.5523 12 21 12H1Z"
                fill="#79797A"></path>
            </svg>