<svg width="23" height="23" viewBox="0 0 23 23" fill="none" xmlns="http://www.w3.org/2000/svg">
            <path fill-rule="evenodd" clip-rule="evenodd"
              d="M11 8.50048C10.0878 9.71465 8.6356 10.5 7 10.5C4.23858 10.5 2 8.26142 2 5.5C2 2.73858 4.23858 0.5 7 0.5C9.76142 0.5 12 2.73858 12 5.5C12 5.62427 11.9955 5.74749 11.9866 5.86949C11.9831 5.91692 11.979 5.96417 11.9742 6.01122C11.8799 6.93958 11.5317 7.79286 11 8.50048ZM10 5.5C10 7.15685 8.65685 8.5 7 8.5C5.34315 8.5 4 7.15685 4 5.5C4 3.84315 5.34315 2.5 7 2.5C8.65685 2.5 10 3.84315 10 5.5Z"
              fill="#79797A"></path>
            <path
              d="M14 5.5C14 5.96166 13.9553 6.41288 13.87 6.84958C14.1915 6.62904 14.5807 6.5 15 6.5C16.1046 6.5 17 7.39543 17 8.5C17 9.60457 16.1046 10.5 15 10.5C14.0683 10.5 13.2854 9.86292 13.0632 9.00062C12.6909 9.64398 12.2192 10.2226 11.6691 10.7154C12.386 11.7912 13.6102 12.5 15 12.5C17.2091 12.5 19 10.7091 19 8.5C19 6.29086 17.2091 4.5 15 4.5C14.6358 4.5 14.283 4.54867 13.9477 4.63986C13.9822 4.92174 14 5.20879 14 5.5Z"
              fill="#79797A"></path>
            <path fill-rule="evenodd" clip-rule="evenodd"
              d="M6 12.5C2.68629 12.5 0 15.1863 0 18.5V20.5C0 21.6046 0.89543 22.5 2 22.5H12C13.1046 22.5 14 21.6046 14 20.5V18.5C14 15.1863 11.3137 12.5 8 12.5H6ZM6 14.5C3.79086 14.5 2 16.2909 2 18.5L2 20.5H12V18.5C12 16.2909 10.2091 14.5 8 14.5H6Z"
              fill="#79797A"></path>
            <path
              d="M17.0016 16.5H15.8641C15.6789 15.7897 15.3975 15.1184 15.0352 14.5H17.0016C19.763 14.5 22.0016 16.7386 22.0016 19.5V20.5C22.0016 21.6046 21.1062 22.5 20.0016 22.5H15.5842C15.9246 21.9117 16.1194 21.2286 16.1194 20.5H20.0016V19.5C20.0016 17.8431 18.6585 16.5 17.0016 16.5Z"
              fill="#79797A"></path>
          </svg>