<svg width="22" height="22" viewBox="0 0 22 22" fill="none" xmlns="http://www.w3.org/2000/svg">
            <path
              d="M11 18C10.4477 18 10 17.5523 10 17V9C10 8.44772 10.4477 8 11 8C11.5523 8 12 8.44772 12 9V17C12 17.5523 11.5523 18 11 18Z"
              fill="#81868f"></path>
            <path
              d="M11 4C10.4477 4 10 4.44772 10 5C10 5.55228 10.4477 6 11 6C11.5523 6 12 5.55228 12 5C12 4.44772 11.5523 4 11 4Z"
              fill="#81868f"></path>
            <path fill-rule="evenodd" clip-rule="evenodd"
              d="M11 22C17.0751 22 22 17.0751 22 11C22 4.92487 17.0751 0 11 0C4.92487 0 0 4.92487 0 11C0 17.0751 4.92487 22 11 22ZM11 20C15.9706 20 20 15.9706 20 11C20 6.02945 15.9706 2 11 2C6.02943 2 2 6.02945 2 11C2 15.9706 6.02943 20 11 20Z"
              fill="#81868f"></path>
          </svg>